<svg width="12" height="20" viewBox="0 0 12 20" fill="none" xmlns="http://www.w3.org/2000/svg">
<path id="Vector" d="M1.6155 20C1.15517 20 0.770833 19.8458 0.4625 19.5375C0.154167 19.2292 0 18.8448 0 18.3845V1.6155C0 1.15517 0.154167 0.770833 0.4625 0.4625C0.770833 0.154167 1.15517 0 1.6155 0H10.3845C10.8448 0 11.2292 0.154167 11.5375 0.4625C11.8458 0.770833 12 1.15517 12 1.6155V18.3845C12 18.8448 11.8458 19.2292 11.5375 19.5375C11.2292 19.8458 10.8448 20 10.3845 20H1.6155ZM1 17.5V18.3845C1 18.5385 1.06408 18.6796 1.19225 18.8078C1.32042 18.9359 1.4615 19 1.6155 19H10.3845C10.5385 19 10.6796 18.9359 10.8077 18.8078C10.9359 18.6796 11 18.5385 11 18.3845V17.5H1ZM1 16.5H11V3.5H1V16.5ZM1 2.5H11V1.6155C11 1.4615 10.9359 1.32042 10.8077 1.19225C10.6796 1.06408 10.5385 1 10.3845 1H1.6155C1.4615 1 1.32042 1.06408 1.19225 1.19225C1.06408 1.32042 1 1.4615 1 1.6155V2.5Z" fill="#BDAEA5"/>
</svg>
