<svg width="29" height="28" viewBox="0 0 29 28" fill="none" xmlns="http://www.w3.org/2000/svg">
<g id="Group 21">
<path id="Vector" d="M14.4097 2.51812C18.1359 2.51812 18.5782 2.51811 20.0526 2.59848C20.9401 2.61471 21.8188 2.77765 22.653 3.08067C23.2603 3.30475 23.8099 3.66171 24.2614 4.12542C24.7269 4.57544 25.0843 5.12494 25.3069 5.73272C25.6101 6.56633 25.7732 7.44436 25.7894 8.33119C25.7894 9.80456 25.8699 10.2466 25.8699 13.9835C25.8699 17.7205 25.8698 18.1492 25.7894 19.6225C25.7732 20.5093 25.6101 21.3874 25.3069 22.221C25.0843 22.8288 24.7269 23.3783 24.2614 23.8283C23.8099 24.292 23.2603 24.649 22.653 24.873C21.8188 25.1761 20.9401 25.339 20.0526 25.3552C18.5782 25.4222 18.1359 25.4356 14.4097 25.4356C10.6835 25.4356 10.2277 25.4356 8.75334 25.3552C7.86588 25.339 6.98723 25.1761 6.15302 24.873C5.54895 24.6424 5.00074 24.2863 4.54458 23.8283C4.08329 23.3749 3.72651 22.8263 3.4991 22.221C3.19586 21.3874 3.03281 20.5093 3.01656 19.6225C3.01656 18.1492 2.93614 17.7071 2.93614 13.9835C2.93614 10.26 2.93614 9.80456 3.01656 8.33119C3.03281 7.44436 3.19586 6.56633 3.4991 5.73272C3.72651 5.12736 4.08329 4.57886 4.54458 4.12542C5.00074 3.66739 5.54895 3.3113 6.15302 3.08067C6.98723 2.77765 7.86588 2.61471 8.75334 2.59848C10.2277 2.59848 10.6701 2.51812 14.4097 2.51812ZM14.4097 0C10.6031 0 10.1339 -3.26913e-06 8.63271 0.0803619C7.47316 0.104371 6.32626 0.326349 5.24158 0.736685C4.30973 1.08952 3.46422 1.63756 2.76189 2.34399C2.052 3.04341 1.50313 3.88901 1.15345 4.82192C0.748017 5.90729 0.526054 7.0525 0.496663 8.21065C0.429645 9.7108 0.416245 10.1796 0.416245 13.9835C0.416245 17.7875 0.416241 18.2563 0.496663 19.7431C0.526054 20.9012 0.748017 22.0464 1.15345 23.1318C1.5099 24.0426 2.05117 24.8699 2.74322 25.5614C3.43526 26.253 4.26308 26.7939 5.17456 27.15C6.25923 27.5604 7.40614 27.7824 8.56569 27.8064C10.0669 27.8733 10.536 27.8867 14.3427 27.8867C18.1493 27.8867 18.6185 27.8867 20.1063 27.8064C21.266 27.7837 22.4131 27.5617 23.4974 27.15C24.4089 26.7939 25.2367 26.253 25.9287 25.5614C26.6208 24.8699 27.1621 24.0426 27.5185 23.1318C27.9304 22.0482 28.1526 20.9019 28.1753 19.7431C28.2423 18.2563 28.2557 17.7741 28.2557 13.9835C28.2557 10.193 28.2557 9.7108 28.1753 8.21065C28.1526 7.05178 27.9304 5.90547 27.5185 4.82192C27.1736 3.88662 26.6241 3.04005 25.9101 2.34399C25.2101 1.6346 24.3639 1.08611 23.4304 0.736685C22.3461 0.325071 21.1989 0.10305 20.0392 0.0803619C18.5514 0.0803619 18.0689 0 14.2757 0" fill="white"/>
<path id="Vector_2" d="M14.4096 6.7776C12.9881 6.77495 11.5978 7.19377 10.4146 7.98103C9.23134 8.76828 8.30841 9.8886 7.76259 11.2002C7.21676 12.5118 7.07257 13.9558 7.34826 15.3493C7.62396 16.7428 8.30715 18.0233 9.31137 19.0287C10.3156 20.034 11.5957 20.7191 12.9897 20.9972C14.3837 21.2753 15.8289 21.134 17.1425 20.591C18.456 20.048 19.5789 19.1278 20.3689 17.9469C21.1589 16.766 21.5806 15.3774 21.5806 13.9569C21.5806 12.0551 20.8255 10.2311 19.4811 8.8851C18.1367 7.5391 16.3127 6.78115 14.4096 6.7776ZM14.4096 18.6047C13.486 18.6073 12.5823 18.3359 11.8131 17.8247C11.044 17.3136 10.4441 16.5857 10.0894 15.7335C9.73469 14.8812 9.64118 13.9429 9.82073 13.0375C10.0003 12.132 10.4448 11.3003 11.098 10.6476C11.7511 9.9949 12.5835 9.55068 13.4895 9.37125C14.3956 9.19183 15.3346 9.28527 16.1874 9.63973C17.0403 9.99418 17.7687 10.5937 18.2802 11.3623C18.7917 12.1308 19.0634 13.0339 19.0607 13.9569C19.0607 14.5672 18.9404 15.1716 18.7067 15.7355C18.4729 16.2994 18.1303 16.8118 17.6984 17.2434C17.2666 17.675 16.7538 18.0173 16.1895 18.2509C15.6252 18.4845 15.0204 18.6047 14.4096 18.6047Z" fill="white"/>
<path id="Vector_3" d="M23.5778 6.53659C23.5778 6.87095 23.4784 7.19777 23.2922 7.47559C23.1061 7.75341 22.8415 7.9697 22.5321 8.09703C22.2228 8.22436 21.8825 8.25699 21.5545 8.19078C21.2265 8.12456 20.9257 7.96251 20.69 7.72514C20.4544 7.48777 20.2946 7.1858 20.2309 6.85755C20.1673 6.5293 20.2027 6.18955 20.3325 5.88141C20.4624 5.57328 20.681 5.31063 20.9604 5.1268C21.2399 4.94298 21.5678 4.84628 21.9024 4.84893C22.1235 4.84892 22.3425 4.89267 22.5467 4.97765C22.7508 5.06262 22.9361 5.18715 23.0919 5.34404C23.2476 5.50093 23.3707 5.68707 23.4541 5.89175C23.5376 6.09644 23.5796 6.3156 23.5778 6.53659Z" fill="white"/>
</g>
</svg>
