<svg width="21" height="24" viewBox="0 0 21 24" fill="none" xmlns="http://www.w3.org/2000/svg">
<g id="drafts_FILL0_wght200_GRAD0_opsz24 1">
<path id="Vector" d="M9 2.19214L17.5115 7.24614C17.6577 7.35247 17.7757 7.48389 17.8655 7.64039C17.9552 7.79672 18 7.96656 18 8.14989V18.3844C18 18.8447 17.8458 19.2291 17.5375 19.5374C17.2292 19.8457 16.8448 19.9999 16.3845 19.9999H1.6155C1.15517 19.9999 0.770833 19.8457 0.4625 19.5374C0.154167 19.2291 0 18.8447 0 18.3844V8.14989C0 7.96656 0.0448333 7.79672 0.1345 7.64039C0.224333 7.48389 0.342333 7.35247 0.4885 7.24614L9 2.19214ZM9 12.6499L16.8 7.99989L9 3.34989L1.2 7.99989L9 12.6499ZM9 13.8076L1 9.04614V18.3844C1 18.5639 1.05767 18.7114 1.173 18.8269C1.2885 18.9422 1.436 18.9999 1.6155 18.9999H16.3845C16.564 18.9999 16.7115 18.9422 16.827 18.8269C16.9423 18.7114 17 18.5639 17 18.3844V9.04614L9 13.8076ZM9 18.9999H17H1H9Z" fill="#A9A0A0"/>
</g>
</svg>
