<svg width="39" height="39" viewBox="0 0 39 39" fill="none" xmlns="http://www.w3.org/2000/svg">
<g id="location_on_FILL0_wght200_GRAD0_opsz24 2">
<path id="Vector" d="M19.5057 19.0625C20.2291 19.0625 20.8465 18.8049 21.3578 18.2898C21.8694 17.7747 22.1252 17.1554 22.1252 16.432C22.1252 15.7086 21.8675 15.0911 21.3521 14.5795C20.837 14.0682 20.2177 13.8125 19.4943 13.8125C18.7709 13.8125 18.1536 14.0701 17.6422 14.5852C17.1306 15.1003 16.8748 15.7196 16.8748 16.443C16.8748 17.1664 17.1325 17.7839 17.6479 18.2955C18.163 18.8068 18.7823 19.0625 19.5057 19.0625ZM19.5 31.9751C22.5542 29.3166 24.9688 26.6129 26.7438 23.8639C28.5189 21.115 29.4064 18.7375 29.4064 16.7314C29.4064 13.7585 28.4653 11.3047 26.583 9.37016C24.7007 7.43587 22.3397 6.46872 19.5 6.46872C16.6603 6.46872 14.2993 7.43587 12.417 9.37016C10.5347 11.3047 9.5936 13.7585 9.5936 16.7314C9.5936 18.7375 10.4811 21.115 12.2562 23.8639C14.0312 26.6129 16.4458 29.3166 19.5 31.9751ZM19.5 34.1563C15.6813 30.7793 12.8047 27.6297 10.8704 24.7077C8.93588 21.786 7.9686 19.1272 7.9686 16.7314C7.9686 13.2937 9.08795 10.4582 11.3267 8.22494C13.5651 5.99165 16.2895 4.875 19.5 4.875C22.7105 4.875 25.4349 5.99165 27.6733 8.22494C29.9121 10.4582 31.0314 13.2937 31.0314 16.7314C31.0314 19.1272 30.0641 21.786 28.1296 24.7077C26.1953 27.6297 23.3188 30.7793 19.5 34.1563Z" fill="white"/>
</g>
</svg>
