<svg width="40" height="40" viewBox="0 0 40 40" fill="none" xmlns="http://www.w3.org/2000/svg">
<g id="phone_in_talk_FILL0_wght200_GRAD0_opsz24 1">
<path id="Vector" d="M31.795 19.1024C31.6025 15.9594 30.4064 13.288 28.2067 11.0883C26.007 8.88825 23.3356 7.69214 20.1925 7.49992V5.83325C21.9981 5.91881 23.6876 6.31992 25.2613 7.03659C26.8349 7.75353 28.2151 8.70547 29.4021 9.89242C30.589 11.0794 31.541 12.4598 32.2579 14.0337C32.9749 15.6073 33.3761 17.2969 33.4617 19.1024H31.795ZM25.1283 19.1024C24.9358 17.8205 24.3856 16.7201 23.4775 15.8012C22.5695 14.8823 21.4745 14.3374 20.1925 14.1666V12.4999C21.9425 12.6708 23.4322 13.3764 24.6617 14.617C25.8914 15.8573 26.6025 17.3524 26.795 19.1024H25.1283ZM31.5513 33.3333C28.7415 33.3333 25.8613 32.6298 22.9104 31.2228C19.9596 29.8156 17.2128 27.8406 14.67 25.2978C12.1486 22.7553 10.1843 20.0139 8.77709 17.0737C7.37014 14.1334 6.66667 11.2584 6.66667 8.44867C6.66667 7.94867 6.83334 7.52659 7.16667 7.18242C7.50001 6.83853 7.91667 6.66659 8.41667 6.66659H12.5383C12.9914 6.66659 13.3867 6.80923 13.7242 7.0945C14.0619 7.37978 14.2907 7.74575 14.4104 8.19242L15.2371 12.1666C15.314 12.6324 15.3001 13.0395 15.1954 13.3878C15.0907 13.7362 14.9058 14.0214 14.6408 14.2437L10.9842 17.6537C11.6678 18.8951 12.4236 20.0484 13.2517 21.1137C14.0797 22.1789 14.9628 23.188 15.9008 24.1408C16.8686 25.1088 17.9103 26.0089 19.0258 26.8412C20.1411 27.6734 21.3654 28.4592 22.6988 29.1987L26.2629 25.5703C26.5343 25.2776 26.8393 25.0848 27.1779 24.992C27.5165 24.8989 27.891 24.8802 28.3013 24.9358L31.8075 25.6537C32.2606 25.7648 32.6282 25.993 32.9104 26.3383C33.1924 26.6833 33.3333 27.0791 33.3333 27.5258V31.5833C33.3333 32.0833 33.1614 32.4999 32.8175 32.8333C32.4733 33.1666 32.0513 33.3333 31.5513 33.3333ZM10.2021 16.0895L13.4008 13.1474C13.5075 13.0619 13.5769 12.9444 13.6092 12.7949C13.6411 12.6452 13.6357 12.5063 13.5929 12.3783L12.8525 8.84617C12.8097 8.67506 12.735 8.54686 12.6283 8.46159C12.5214 8.37603 12.3825 8.33325 12.2117 8.33325H8.79167C8.66334 8.33325 8.55653 8.37603 8.47126 8.46159C8.3857 8.54686 8.34292 8.65367 8.34292 8.782C8.37487 9.92089 8.55334 11.1099 8.87834 12.3491C9.20306 13.5885 9.64431 14.8353 10.2021 16.0895ZM24.2854 29.9808C25.4113 30.5385 26.6115 30.9509 27.8863 31.2178C29.1607 31.4851 30.2713 31.6283 31.2179 31.6474C31.3463 31.6474 31.4531 31.6046 31.5383 31.5191C31.6239 31.4335 31.6667 31.3267 31.6667 31.1987V27.8524C31.6667 27.6816 31.6239 27.5427 31.5383 27.4358C31.4531 27.3291 31.3249 27.2544 31.1538 27.2116L28.0704 26.5799C27.9424 26.5371 27.8303 26.5319 27.7342 26.5641C27.6378 26.596 27.5363 26.6655 27.4296 26.7724L24.2854 29.9808Z" fill="white"/>
</g>
</svg>
