<svg width="27" height="27" viewBox="0 0 27 27" fill="none" xmlns="http://www.w3.org/2000/svg">
<g id="Group 22">
<path id="Vector" fill-rule="evenodd" clip-rule="evenodd" d="M26.5757 12.49C26.4626 9.15976 25.0677 6.00173 22.6818 3.67473C20.2959 1.34773 17.1034 0.0314694 13.7702 0.000557C10.437 -0.0303554 7.22061 1.22646 4.79196 3.50881C2.36331 5.79116 0.909981 8.92278 0.735165 12.2504C0.735165 12.4396 0.735165 12.6288 0.735165 12.818C0.733869 15.1536 1.37555 17.4445 2.58993 19.4398L0.255707 26.3265L7.4224 24.0436C9.38498 25.1215 11.5937 25.672 13.8328 25.6414C16.0718 25.6109 18.2647 25.0002 20.1971 23.8691C22.1294 22.738 23.7353 21.1252 24.8577 19.1883C25.9801 17.2513 26.5808 15.0564 26.6009 12.818C26.5991 12.7082 26.5906 12.5987 26.5757 12.49ZM13.6554 23.6021C11.5289 23.6067 9.44846 22.9836 7.67475 21.8111L3.49838 23.1481L4.84845 19.1371C3.50561 17.3083 2.78078 15.0992 2.77919 12.8306C2.76001 12.4819 2.76001 12.1324 2.77919 11.7837C3.04758 9.08196 4.31744 6.57838 6.33904 4.76529C8.36064 2.9522 10.9877 1.96083 13.7035 1.98613C16.4194 2.01143 19.0275 3.05156 21.0149 4.90199C23.0024 6.75243 24.2253 9.27925 24.4433 11.9855C24.4433 12.263 24.4433 12.5405 24.4433 12.8306C24.4267 15.6844 23.2844 18.4165 21.2645 20.4333C19.2446 22.4502 16.5103 23.5889 13.6554 23.6021Z" fill="white"/>
<path id="Vector_2" fill-rule="evenodd" clip-rule="evenodd" d="M19.3737 15.1875C19.0734 15.0323 17.5961 14.2436 17.3199 14.1402C17.0436 14.0368 16.8395 13.9722 16.6353 14.2954C16.4311 14.6186 15.8546 15.3556 15.6744 15.5883C15.4943 15.821 15.3261 15.8339 15.0258 15.6658C14.142 15.2914 13.3282 14.7483 12.6237 14.0626C11.958 13.4212 11.3905 12.6707 10.9422 11.8389C10.774 11.5156 10.9422 11.3476 11.0743 11.1795C11.2064 11.0114 11.3746 10.8045 11.5307 10.6235C11.5608 10.5673 11.5971 10.5152 11.6388 10.4684C11.7109 10.3391 11.7589 10.2357 11.831 10.0805C11.8762 9.99363 11.9 9.89569 11.9 9.79608C11.9 9.69647 11.8762 9.59853 11.831 9.51164C11.7589 9.35649 11.1464 7.76622 10.8942 7.11977C10.6419 6.47332 10.4017 6.5897 10.2216 6.5897C10.0414 6.5897 9.84922 6.5897 9.64504 6.5897C9.49247 6.59307 9.34219 6.63041 9.20369 6.69939C9.06519 6.76837 8.94147 6.86749 8.84032 6.99049C8.49941 7.33714 8.22937 7.75646 8.04739 8.2217C7.86541 8.68695 7.77549 9.18791 7.78338 9.69265C7.78821 10.065 7.84075 10.4348 7.93951 10.7916C8.1756 11.593 8.53713 12.3451 9.00848 13.0154C10.2654 15.13 12.0514 16.8196 14.1611 17.8896C17.2358 19.1825 17.2358 18.7429 17.7643 18.6912C18.1866 18.6055 18.5871 18.424 18.9391 18.1587C19.2912 17.8934 19.5867 17.5505 19.8061 17.1527C20.0044 16.6742 20.0631 16.1422 19.9742 15.6271C19.8782 15.4331 19.674 15.3556 19.3737 15.1875Z" fill="white"/>
</g>
</svg>
